<?xml version="1.0" encoding="utf-8"?>
<!-- Generator: Adobe Illustrator 26.5.0, SVG Export Plug-In . SVG Version: 6.00 Build 0)  -->
<svg version="1.1" id="Layer_1" xmlns="http://www.w3.org/2000/svg" xmlns:xlink="http://www.w3.org/1999/xlink" x="0px" y="0px"
	 width="315px" height="90px" viewBox="0 0 315 90" style="enable-background:new 0 0 315 90;" xml:space="preserve">
<style type="text/css">
	.st0{display:none;}
	.st1{fill:none;stroke:#000000;stroke-width:1.5;stroke-linecap:round;}
	.st2{fill-rule:evenodd;clip-rule:evenodd;fill:#FFFFFF;stroke:#000000;stroke-width:1.5;}
	
		.st3{fill-rule:evenodd;clip-rule:evenodd;fill:#FFFFFF;stroke:#000000;stroke-width:1.5;stroke-linecap:round;stroke-linejoin:round;}
	.st4{fill:none;stroke:#000000;stroke-width:1.5;stroke-linecap:round;stroke-linejoin:round;}
	.st5{fill-rule:evenodd;clip-rule:evenodd;fill:#FFFFFF;stroke:#000000;stroke-width:1.5;stroke-linejoin:round;}
	.st6{fill-rule:evenodd;clip-rule:evenodd;stroke:#000000;stroke-width:1.5;stroke-linecap:round;stroke-linejoin:round;}
	
		.st7{fill-rule:evenodd;clip-rule:evenodd;stroke:#000000;stroke-width:1.5;stroke-linecap:round;stroke-linejoin:round;stroke-miterlimit:3.9999;}
	.st8{fill:#FFFFFF;stroke:#000000;stroke-width:1.5;stroke-linecap:round;}
	.st9{fill-rule:evenodd;clip-rule:evenodd;stroke:#000000;stroke-width:1.5;}
	.st10{fill:none;stroke:#FFFFFF;stroke-width:1.5;stroke-linecap:round;stroke-linejoin:round;}
	.st11{fill-rule:evenodd;clip-rule:evenodd;}
	.st12{fill-rule:evenodd;clip-rule:evenodd;stroke:#000000;stroke-width:1.5;stroke-linejoin:round;}
	.st13{fill:none;stroke:#000000;stroke-width:1.5;stroke-linejoin:round;}
	.st14{fill:none;stroke:#FFFFFF;stroke-width:1.5;stroke-linecap:round;}
	
		.st15{fill-rule:evenodd;clip-rule:evenodd;fill:#FFFFFF;stroke:#FFFFFF;stroke-width:1.5;stroke-linecap:round;stroke-linejoin:round;}
	
		.st16{fill-rule:evenodd;clip-rule:evenodd;fill:#FFFFFF;stroke:#FFFFFF;stroke-width:1.5;stroke-linecap:round;stroke-linejoin:round;stroke-miterlimit:3.9999;}
	.st17{fill-rule:evenodd;clip-rule:evenodd;fill:#FFFFFF;}
	.st18{fill:none;stroke:#FFFFFF;stroke-linecap:round;}
	.st19{stroke:#000000;stroke-width:1.5;stroke-linecap:round;}
	.st20{fill:#F7DF7F;}
	.st21{fill:#F1BA4F;}
</style>
<rect x="270" class="st0" width="45" height="45"/>
<g transform="translate(0,0)">
	<path class="st1" d="M22.5,11.6V6"/>
	<path class="st1" d="M20,8h5"/>
	<path class="st2" d="M22.5,25c0,0,4.5-7.5,3-10.5c0,0-1-2.5-3-2.5s-3,2.5-3,2.5C18,17.5,22.5,25,22.5,25"/>
	<path class="st3" d="M11.5,37c5.5,3.5,15.5,3.5,21,0v-7c0,0,9-4.5,6-10.5c-4-6.5-13.5-3.5-16,4V27v-3.5c-3.5-7.5-13-10.5-16-4
		c-3,6,5,10,5,10V37z"/>
	<path class="st4" d="M11.5,30c5.5-3,15.5-3,21,0"/>
	<path class="st4" d="M11.5,33.5c5.5-3,15.5-3,21,0"/>
	<path class="st4" d="M11.5,37c5.5-3,15.5-3,21,0"/>
</g>
<g transform="translate(45,0)">
	<path class="st3" d="M8,12c0,1.1-0.9,2-2,2s-2-0.9-2-2s0.9-2,2-2S8,10.9,8,12z"/>
	<path class="st3" d="M24.5,7.5c0,1.1-0.9,2-2,2s-2-0.9-2-2s0.9-2,2-2S24.5,6.4,24.5,7.5z"/>
	<path class="st3" d="M41,12c0,1.1-0.9,2-2,2s-2-0.9-2-2s0.9-2,2-2S41,10.9,41,12z"/>
	<path class="st3" d="M16,8.5c0,1.1-0.9,2-2,2s-2-0.9-2-2s0.9-2,2-2S16,7.4,16,8.5z"/>
	<path class="st3" d="M33,9c0,1.1-0.9,2-2,2s-2-0.9-2-2s0.9-2,2-2S33,7.9,33,9z"/>
	<path class="st5" d="M9,26c8.5-1.5,21-1.5,27,0l2-12l-7,11V11l-5.5,13.5l-3-15l-3,15l-5.5-14V25L7,14L9,26z"/>
	<path class="st5" d="M9,26c0,2,1.5,2,2.5,4c1,1.5,1,1,0.5,3.5c-1.5,1-1.5,2.5-1.5,2.5C9,37.5,11,38.5,11,38.5c6.5,1,16.5,1,23,0
		c0,0,1.5-1,0-2.5c0,0,0.5-1.5-1-2.5c-0.5-2.5-0.5-2,0.5-3.5c1-2,2.5-2,2.5-4C27.5,24.5,17.5,24.5,9,26z"/>
	<path class="st4" d="M11.5,30c3.5-1,18.5-1,22,0"/>
	<path class="st4" d="M12,33.5c6-1,15-1,21,0"/>
</g>
<g transform="translate(90,0)">
	<g>
		<path class="st5" d="M9,36c3.4-1,10.1,0.4,13.5-2c3.4,2.4,10.1,1,13.5,2c0,0,1.7,0.5,3,2c-0.7,1-1.7,1-3,0.5
			c-3.4-1-10.1,0.5-13.5-1c-3.4,1.5-10.1,0-13.5,1C7.6,39,6.7,39,6,38C7.4,36.1,9,36,9,36z"/>
		<path class="st5" d="M15,32c2.5,2.5,12.5,2.5,15,0c0.5-1.5,0-2,0-2c0-2.5-2.5-4-2.5-4c5.5-1.5,6-11.5-5-15.5c-11,4-10.5,14-5,15.5
			c0,0-2.5,1.5-2.5,4C15,30,14.5,30.5,15,32z"/>
		<path class="st5" d="M25,8c0,1.4-1.1,2.5-2.5,2.5S20,9.4,20,8s1.1-2.5,2.5-2.5S25,6.6,25,8z"/>
	</g>
	<path class="st1" d="M17.5,26h10 M15,30h15 M22.5,15.5v5 M20,18h5"/>
</g>
<g transform="translate(135,0)">
	<path class="st3" d="M22,10c10.5,1,16.5,8,16,29H15c0-9,10-6.5,8-21"/>
	<path class="st3" d="M24,18c0.4,2.9-5.5,7.4-8,9c-3,2-2.8,4.3-5,4c-1-0.9,1.4-3,0-3c-1,0,0.2,1.2-1,2c-1,0-4,1-4-4c0-2,6-12,6-12
		s1.9-1.9,2-3.5c-0.7-1-0.5-2-0.5-3c1-1,3,2.5,3,2.5h2c0,0,0.8-2,2.5-3c1,0,1,3,1,3"/>
	<path class="st6" d="M9.5,25.5C9.5,25.8,9.3,26,9,26s-0.5-0.2-0.5-0.5S8.7,25,9,25S9.5,25.2,9.5,25.5z"/>
	<path class="st7" d="M14.9,15.8c-0.4,0.7-0.9,1.2-1.2,1c-0.2-0.1-0.1-0.8,0.3-1.5c0.4-0.7,0.9-1.2,1.2-1
		C15.5,14.3,15.3,15,14.9,15.8z"/>
</g>
<g transform="translate(180,0)">
	<path class="st5" d="M9,39h27v-3H9V39z"/>
	<path class="st5" d="M12,36v-4h21v4H12z"/>
	<path class="st5" d="M11,14V9h4v2h5V9h5v2h5V9h4v5"/>
	<path class="st3" d="M34,14l-3,3H14l-3-3"/>
	<path class="st2" d="M31,17v12.5H14V17"/>
	<path class="st3" d="M31,29.5l1.5,2.5h-20l1.5-2.5"/>
	<path class="st1" d="M11,14h23"/>
</g>
<g transform="translate(225,0)">
	<path class="st8" d="M22,9c-2.2,0-4,1.8-4,4c0,0.9,0.3,1.7,0.8,2.4c-2,1.1-3.3,3.2-3.3,5.6c0,2,0.9,3.8,2.4,5
		c-3,1.1-7.4,5.5-7.4,13.5h23c0-7.9-4.4-12.4-7.4-13.5c1.5-1.2,2.4-3,2.4-5c0-2.4-1.3-4.5-3.3-5.6c0.5-0.7,0.8-1.5,0.8-2.4
		C26,10.8,24.2,9,22,9z"/>
</g>
<g transform="translate(0,45)">
	<path class="st1" d="M22.5,11.6V6"/>
	<path class="st9" d="M22.5,25c0,0,4.5-7.5,3-10.5c0,0-1-2.5-3-2.5s-3,2.5-3,2.5C18,17.5,22.5,25,22.5,25"/>
	<path class="st6" d="M11.5,37c5.5,3.5,15.5,3.5,21,0v-7c0,0,9-4.5,6-10.5c-4-6.5-13.5-3.5-16,4V27v-3.5c-3.5-7.5-13-10.5-16-4
		c-3,6,5,10,5,10V37z"/>
	<path class="st1" d="M20,8h5"/>
	<path class="st10" d="M32,29.5c0,0,8.5-4,6-9.6C34.2,14,25,18,22.5,24.5l0,2.1l0-2.1C20,18,9.9,14,7,19.9c-2.5,5.6,4.9,9,4.9,9"/>
	<path class="st10" d="M11.5,30c5.5-3,15.5-3,21,0 M11.5,33.5c5.5-3,15.5-3,21,0 M11.5,37c5.5-3,15.5-3,21,0"/>
</g>
<g transform="translate(45,45)">
	<g>
		<circle class="st11" cx="6" cy="12" r="2.8"/>
		<circle class="st11" cx="14" cy="9" r="2.8"/>
		<circle class="st11" cx="22.5" cy="8" r="2.8"/>
		<circle class="st11" cx="31" cy="9" r="2.8"/>
		<circle class="st11" cx="39" cy="12" r="2.8"/>
	</g>
	<path class="st12" d="M9,26c8.5-1.5,21-1.5,27,0l2.5-12.5L31,25l-0.3-14.1l-5.2,13.6l-3-14.5l-3,14.5l-5.2-13.6L14,25L6.5,13.5
		L9,26z"/>
	<path class="st12" d="M9,26c0,2,1.5,2,2.5,4c1,1.5,1,1,0.5,3.5c-1.5,1-1.5,2.5-1.5,2.5C9,37.5,11,38.5,11,38.5c6.5,1,16.5,1,23,0
		c0,0,1.5-1,0-2.5c0,0,0.5-1.5-1-2.5c-0.5-2.5-0.5-2,0.5-3.5c1-2,2.5-2,2.5-4C27.5,24.5,17.5,24.5,9,26z"/>
	<path class="st13" d="M11,38.5c7.4,2.6,15.6,2.6,23,0"/>
	<path class="st10" d="M11,29c7.4-2.6,15.6-2.6,23,0"/>
	<path class="st10" d="M12.5,31.5h20"/>
	<path class="st10" d="M11.5,34.5c7.1,2.4,14.9,2.4,22,0"/>
	<path class="st10" d="M10.5,37.5c7.7,2.8,16.3,2.8,24,0"/>
</g>
<g transform="translate(90,45)">
	<g>
		<path class="st12" d="M9,36c3.4-1,10.1,0.4,13.5-2c3.4,2.4,10.1,1,13.5,2c0,0,1.7,0.5,3,2c-0.7,1-1.7,1-3,0.5
			c-3.4-1-10.1,0.5-13.5-1c-3.4,1.5-10.1,0-13.5,1C7.6,39,6.7,39,6,38C7.4,36.1,9,36,9,36z"/>
		<path class="st12" d="M15,32c2.5,2.5,12.5,2.5,15,0c0.5-1.5,0-2,0-2c0-2.5-2.5-4-2.5-4c5.5-1.5,6-11.5-5-15.5
			c-11,4-10.5,14-5,15.5c0,0-2.5,1.5-2.5,4C15,30,14.5,30.5,15,32z"/>
		<path class="st12" d="M25,8c0,1.4-1.1,2.5-2.5,2.5S20,9.4,20,8s1.1-2.5,2.5-2.5S25,6.6,25,8z"/>
	</g>
	<path class="st14" d="M17.5,26h10 M15,30h15 M22.5,15.5v5 M20,18h5"/>
</g>
<g transform="translate(135,45)">
	<path class="st6" d="M22,10c10.5,1,16.5,8,16,29H15c0-9,10-6.5,8-21"/>
	<path class="st6" d="M24,18c0.4,2.9-5.5,7.4-8,9c-3,2-2.8,4.3-5,4c-1-0.9,1.4-3,0-3c-1,0,0.2,1.2-1,2c-1,0-4,1-4-4c0-2,6-12,6-12
		s1.9-1.9,2-3.5c-0.7-1-0.5-2-0.5-3c1-1,3,2.5,3,2.5h2c0,0,0.8-2,2.5-3c1,0,1,3,1,3"/>
	<path class="st15" d="M9.5,25.5C9.5,25.8,9.3,26,9,26s-0.5-0.2-0.5-0.5S8.7,25,9,25S9.5,25.2,9.5,25.5z"/>
	<path class="st16" d="M14.9,15.8c-0.4,0.7-0.9,1.2-1.2,1c-0.2-0.1-0.1-0.8,0.3-1.5c0.4-0.7,0.9-1.2,1.2-1
		C15.5,14.3,15.3,15,14.9,15.8z"/>
	<path class="st17" d="M24.5,10.4l-0.4,1.5l0.5,0.1c3.1,1,5.6,2.5,7.9,6.8s3.2,10.3,2.8,20.2l0,0.5h2.2l0-0.5
		c0.5-10.1-0.9-16.9-3.2-21.3s-5.8-6.6-9.2-7.2L24.5,10.4z"/>
</g>
<g transform="translate(180,45)">
	<path class="st12" d="M9,39h27v-3H9V39z"/>
	<path class="st12" d="M12.5,32l1.5-2.5h17l1.5,2.5H12.5z"/>
	<path class="st12" d="M12,36v-4h21v4H12z"/>
	<path class="st9" d="M14,29.5v-13h17v13H14z"/>
	<path class="st12" d="M14,16.5L11,14h23l-3,2.5H14z"/>
	<path class="st12" d="M11,14V9h4v2h5V9h5v2h5V9h4v5H11z"/>
	<path class="st18" d="M12,35.5h21l0,0"/>
	<path class="st18" d="M13,31.5h19"/>
	<path class="st18" d="M14,29.5h17"/>
	<path class="st18" d="M14,16.5h17"/>
	<path class="st18" d="M11,14h23"/>
</g>
<g transform="translate(225,45)">
	<path class="st19" d="M22,9c-2.2,0-4,1.8-4,4c0,0.9,0.3,1.7,0.8,2.4c-2,1.1-3.3,3.2-3.3,5.6c0,2,0.9,3.8,2.4,5
		c-3,1.1-7.4,5.5-7.4,13.5h23c0-7.9-4.4-12.4-7.4-13.5c1.5-1.2,2.4-3,2.4-5c0-2.4-1.3-4.5-3.3-5.6c0.5-0.7,0.8-1.5,0.8-2.4
		C26,10.8,24.2,9,22,9z"/>
</g>
<g>
	<path d="M296,8c0.7,0.1,1.3,0.2,2,0.4c2,0.6,3.7,1.8,4.9,3.5c0.2,0.2,0.4,0.3,0.6,0.3c0.6,0,1-0.3,1.5-0.6c0.7-0.4,1.6,0,1.7,0.7
		c0.1,0.3,0.1,0.6,0,0.9c-0.1,0.4-0.3,0.9-0.4,1.3c0,0.1-0.1,0.2-0.2,0.3c0.2,0.1,0.5,0.2,0.7,0.4c0.5,0.4,0.7,0.9,0.6,1.4
		c-0.1,0.6-0.4,0.9-1,1.2c-0.6,0.3-1.2,0.6-1.9,1c-0.1,0-0.1,0.2-0.1,0.2c-0.2,0.9-0.4,1.7-0.9,2.5c-0.2,0.4-0.2,0.7,0.1,1.1
		c1.2,1.7,1.9,3.5,2.2,5.5c0.5,3.9-1.1,7.5-4.5,9.7c-1.9,1.2-3.9,1.8-6.1,1.8c-2.4,0.1-4.9,0.1-7.3,0c-1.9-0.1-3.7-0.5-5.4-1.4
		c-2.3-1.2-3.8-3.2-4.5-5.7c-0.6-1.9-0.7-3.9-0.5-5.8c0-0.6,0.1-1.2,0.2-1.8c0.4-1.9,2.5-2.8,4.2-1.8c0.8,0.4,1.5,0.9,2.4,1.3
		c0.6,0.3,1.2,0.4,1.8,0.5c0.5,0.1,1-0.1,1.4-0.4c0.5-0.5,0.6-1.1,0.2-1.6c-0.5-0.8-1-1.6-1.3-2.4c-1-3-0.6-5.8,1.2-8.4
		c1.4-2,3.3-3.2,5.6-3.7c0.5-0.1,0.9-0.1,1.4-0.2C295.2,8,295.6,8,296,8z M303.5,19.2c-0.3,0-0.5,0-0.8,0c-0.3,0-0.5-0.1-0.7-0.2
		c-1.2-0.5-1.4-1.7-0.6-2.7c0.2-0.2,0.3-0.4,0.5-0.7c0.4-0.8,0.5-1.7,0.5-2.6c0-0.2-0.1-0.4-0.2-0.5c-2-2.8-4.8-4-8.2-3.5
		c-2.8,0.4-4.9,1.9-6.1,4.4c-1.5,2.9-1.3,5.8,0.5,8.6c0.1,0.2,0.3,0.4,0.4,0.6c0.6,1.4-0.4,2.9-2,3.1c-1,0.1-1.9-0.1-2.8-0.5
		c-0.9-0.4-1.7-0.9-2.5-1.4c-1.1-0.6-2.4-0.1-2.8,1c-0.1,0.3-0.2,0.7-0.2,1.1c-0.2,1.9-0.2,3.9,0.3,5.8c0.7,2.5,2,4.5,4.3,5.7
		c1.6,0.8,3.3,1.2,5,1.2c2,0.1,4,0.1,6,0c0.8,0,1.7-0.1,2.5-0.2c1.8-0.3,3.5-0.9,4.9-2c2.8-2.3,3.8-5.2,3.2-8.7
		c-0.3-1.6-1-3.1-1.9-4.5c-0.2-0.3-0.3-0.5-0.4-0.8c-0.1-0.4,0-0.9,0.2-1.3C303.1,20.6,303.3,19.9,303.5,19.2z M303.3,13.2
		c0,0.4-0.1,0.7-0.1,1c-0.1,1-0.4,1.9-1.1,2.7c-0.5,0.5-0.4,1,0.3,1.3c0.7,0.3,1.3,0.1,1.9-0.3c0.6-0.3,1.2-0.6,1.8-0.9
		c0.3-0.1,0.4-0.3,0.4-0.6c0-0.3-0.2-0.5-0.5-0.5c-0.3,0-0.6,0-0.8-0.1c-0.2,0-0.4-0.1-0.5-0.3c-0.1-0.2,0-0.4,0.1-0.6
		c0.1-0.1,0.3-0.3,0.4-0.4c0.4-0.5,0.7-1.1,0.6-1.8c0-0.4-0.2-0.5-0.5-0.3C304.7,12.9,304.1,13.1,303.3,13.2z"/>
	<path class="st20" d="M303.5,19.2c-0.1,0.7-0.4,1.3-0.7,2c-0.2,0.4-0.3,0.8-0.2,1.3c0.1,0.3,0.2,0.6,0.4,0.8
		c0.9,1.4,1.6,2.9,1.9,4.5c0.6,3.5-0.4,6.5-3.2,8.7c-1.4,1.1-3.1,1.8-4.9,2c-0.8,0.1-1.7,0.2-2.5,0.2c-2,0-4,0-6,0
		c-1.7-0.1-3.4-0.4-5-1.2c-2.3-1.2-3.7-3.2-4.3-5.7c-0.5-1.9-0.5-3.8-0.3-5.8c0-0.4,0.1-0.7,0.2-1.1c0.4-1.2,1.7-1.6,2.8-1
		c0.8,0.5,1.6,1,2.5,1.4c0.9,0.4,1.8,0.6,2.8,0.5c1.6-0.2,2.5-1.7,2-3.1c-0.1-0.2-0.2-0.4-0.4-0.6c-1.8-2.8-2-5.7-0.5-8.6
		c1.3-2.5,3.3-4,6.1-4.4c3.4-0.5,6.1,0.7,8.2,3.5c0.1,0.1,0.1,0.3,0.2,0.5c0,0.9-0.1,1.8-0.5,2.6c-0.1,0.2-0.3,0.5-0.5,0.7
		c-0.8,1-0.6,2.1,0.6,2.7c0.2,0.1,0.5,0.2,0.7,0.2C303,19.2,303.2,19.2,303.5,19.2z M291.3,36.8c2.1,0,4.1-0.6,5.8-1.9
		c2.8-2.1,3.5-5.9,1.8-8.9c-1.1-1.9-3.4-2.7-5.5-2c-1.6,0.6-2.8,1.8-4.2,2.7c-0.2,0.1-0.2,0.4-0.1,0.6c0.1,0.2,0.3,0.3,0.6,0.2
		c0.1,0,0.2-0.1,0.2-0.1c0.7-0.5,1.3-1,2-1.4c0.6-0.4,1.2-0.7,1.8-1c1.4-0.5,2.7-0.3,3.7,0.7c1.6,1.6,1.9,3.5,1.2,5.6
		c-0.6,1.9-2,3.1-3.7,3.9c-2.3,1-4.7,0.9-7.1,0.1c-2.4-0.8-4.2-2.3-5.6-4.3c-0.1-0.2-0.2-0.4-0.2-0.5c-0.1-0.7,0.4-1.2,1.2-1.2
		c0.8,0,1.5-0.1,2.3-0.2c0.8-0.2,1.6-0.4,2.4-0.7c0.3-0.1,0.5-0.3,0.4-0.6c-0.1-0.3-0.3-0.4-0.7-0.3c0,0,0,0-0.1,0
		c-1.4,0.5-2.9,0.8-4.4,0.8c-1.9,0-2.5,1.9-1.7,3.1c1.3,1.9,3,3.4,5.1,4.4C288,36.5,289.6,36.8,291.3,36.8z M300.3,15.1
		c0.4,0,0.6-0.3,0.6-0.6c-0.1-0.3-0.1-0.6-0.2-0.9c-0.1-0.3-0.3-0.4-0.5-0.4c-0.3,0.1-0.4,0.3-0.3,0.6c0.1,0.3,0.1,0.6,0.2,0.9
		C300.1,14.9,300.3,15.1,300.3,15.1z"/>
	<path class="st21" d="M303.3,13.2c0.8,0,1.4-0.3,2-0.6c0.3-0.2,0.5-0.1,0.5,0.3c0.1,0.7-0.2,1.3-0.6,1.8c-0.1,0.1-0.2,0.3-0.4,0.4
		c-0.2,0.2-0.2,0.4-0.1,0.6c0.1,0.1,0.3,0.2,0.5,0.3c0.3,0.1,0.6,0,0.8,0.1c0.3,0,0.4,0.2,0.5,0.5c0,0.3-0.1,0.5-0.4,0.6
		c-0.6,0.3-1.2,0.6-1.8,0.9c-0.6,0.3-1.2,0.5-1.9,0.3c-0.7-0.3-0.8-0.8-0.3-1.3c0.7-0.8,1-1.7,1.1-2.7
		C303.3,13.8,303.3,13.5,303.3,13.2z"/>
	<path class="st21" d="M289.1,27.4c0,0,3.8-3.5,6.5-3s3.7,3.1,3.8,4c0.2,0.9,0.2,3-0.8,4.3c-0.9,1.3-2.3,3-5.4,3.6
		c-3.1,0.5-6.1-0.3-7.8-1.6c-1.8-1.2-3.7-3-3.9-3.9s0-1.8,1.1-2c1.1-0.2,1.1-0.2,1.1-0.2l4.6-0.8L289.1,27.4z"/>
	<path d="M291.3,36.8c-1.7,0-3.3-0.3-4.9-1c-2.1-0.9-3.8-2.4-5.1-4.4c-0.8-1.2-0.1-3.1,1.7-3.1c1.5,0,3-0.3,4.4-0.8c0,0,0,0,0.1,0
		c0.3-0.1,0.6,0,0.7,0.3c0.1,0.3,0,0.5-0.4,0.6c-0.8,0.2-1.6,0.5-2.4,0.7c-0.7,0.1-1.5,0.2-2.3,0.2c-0.8,0.1-1.3,0.5-1.2,1.2
		c0,0.2,0.1,0.4,0.2,0.5c1.4,2.1,3.2,3.6,5.6,4.3c2.4,0.7,4.8,0.9,7.1-0.1c1.8-0.8,3.1-2,3.7-3.9c0.7-2.1,0.3-4-1.2-5.6
		c-1-1.1-2.3-1.2-3.7-0.7c-0.6,0.2-1.2,0.6-1.8,1c-0.7,0.4-1.3,1-2,1.4c-0.1,0.1-0.2,0.1-0.2,0.1c-0.2,0.1-0.4,0-0.6-0.2
		c-0.1-0.2-0.1-0.4,0.1-0.6c1.4-0.9,2.6-2.1,4.2-2.7c2.1-0.8,4.4,0.1,5.5,2c1.8,3,1,6.7-1.8,8.9C295.4,36.2,293.5,36.8,291.3,36.8z"
		/>
	<path d="M300.3,15.1c-0.1-0.1-0.3-0.2-0.3-0.4c-0.1-0.3-0.2-0.6-0.2-0.9c-0.1-0.3,0.1-0.5,0.3-0.6c0.3-0.1,0.5,0.1,0.5,0.4
		c0.1,0.3,0.2,0.6,0.2,0.9C301,14.9,300.8,15.1,300.3,15.1z"/>
</g>
</svg>
